# xmcd
# Track frame offsets:
# 150
# 14600
# 27537
# 37812
# 56352
# 68687
# 82787
# 96312
# 107310
# 120337
#
# Disc length: 1766 seconds
# Revision: 0
# Processed by: cddbd v1.5.1PL0 Copyright (c) Steve Scherf et al.
# Submitted via: VisiTrax 2.9.9.209 - For more info visit www.synapsa.com
#
DISCID=6c06e40a
DTITLE=Various Artist - Branson City Limits: Greatest Hits Volume 2
DYEAR=1900
DGENRE=
TTITLE0=Lee Greenwood - God Bless The U.S.A.
TTITLE1=Oak Ridge Boys - Bobbie Sue
TTITLE2=Boxcar Willie - Big Freight Train Carry Me Home
TTITLE3=Don Williams - I Beleive In You
TTITLE4=Crystal Gayle - I've Cried (The Blue Right Out Of My Eyes)
TTITLE5=Tony Orlando and Dawn - Candida
TTITLE6=Loretta Lynn - Coal Miner's Daughter
TTITLE7=Conway Twitty - Hello Darlin'
TTITLE8=Lawrence Wellk with his Champagne Music - Say It Isn't So
TTITLE9=Freddy Fender - Wasted Days And Wasted Nights
EXTD=
EXTT0=
EXTT1=
EXTT2=
EXTT3=
EXTT4=
EXTT5=
EXTT6=
EXTT7=
EXTT8=
EXTT9=
PLAYORDER=
